<?xml version="1.0" encoding="UTF-8" standalone="no"?>
<!DOCTYPE svg PUBLIC "-//W3C//DTD SVG 1.1//EN"
 "http://www.w3.org/Graphics/SVG/1.1/DTD/svg11.dtd">
<!-- Generated by graphviz version 2.43.0 (0)
 -->
<!-- Title: %3 Pages: 1 -->
<svg width="1544pt" height="116pt"
 viewBox="0.00 0.00 1544.04 116.00" xmlns="http://www.w3.org/2000/svg" xmlns:xlink="http://www.w3.org/1999/xlink">
<g id="graph0" class="graph" transform="scale(1 1) rotate(0) translate(4 112)">
<title>%3</title>
<polygon fill="white" stroke="transparent" points="-4,4 -4,-112 1540.04,-112 1540.04,4 -4,4"/>
<!-- 0 -->
<g id="node1" class="node">
<title>0</title>
<ellipse fill="#40d0d0" stroke="#40d0d0" cx="761.6" cy="-90" rx="34.39" ry="18"/>
<text text-anchor="middle" x="761.6" y="-86.3" font-family="Times,serif" font-size="14.00">5322</text>
</g>
<!-- 1 -->
<g id="node2" class="node">
<title>1</title>
<ellipse fill="#f0f0f0" stroke="#f0f0f0" cx="28.6" cy="-18" rx="28.7" ry="18"/>
<text text-anchor="middle" x="28.6" y="-14.3" font-family="Times,serif" font-size="14.00">822</text>
</g>
<!-- 0&#45;&gt;1 -->
<g id="edge1" class="edge">
<title>0&#45;&gt;1</title>
<path fill="none" stroke="black" d="M726.98,-87.93C604.75,-83.92 193.86,-68.28 66.6,-36 64.29,-35.42 61.95,-34.7 59.62,-33.9"/>
<polygon fill="black" stroke="black" points="60.83,-30.61 50.24,-30.22 58.27,-37.13 60.83,-30.61"/>
</g>
<!-- 2 -->
<g id="node3" class="node">
<title>2</title>
<ellipse fill="#f0f0f0" stroke="#f0f0f0" cx="109.6" cy="-18" rx="34.39" ry="18"/>
<text text-anchor="middle" x="109.6" y="-14.3" font-family="Times,serif" font-size="14.00">1034</text>
</g>
<!-- 0&#45;&gt;2 -->
<g id="edge2" class="edge">
<title>0&#45;&gt;2</title>
<path fill="none" stroke="black" d="M727.12,-89.36C633.56,-89.63 367.52,-85.6 153.6,-36 150.76,-35.34 147.85,-34.54 144.96,-33.64"/>
<polygon fill="black" stroke="black" points="145.87,-30.25 135.27,-30.31 143.59,-36.87 145.87,-30.25"/>
</g>
<!-- 3 -->
<g id="node4" class="node">
<title>3</title>
<ellipse fill="#f0f0f0" stroke="#f0f0f0" cx="196.6" cy="-18" rx="34.39" ry="18"/>
<text text-anchor="middle" x="196.6" y="-14.3" font-family="Times,serif" font-size="14.00">1035</text>
</g>
<!-- 0&#45;&gt;3 -->
<g id="edge3" class="edge">
<title>0&#45;&gt;3</title>
<path fill="none" stroke="black" d="M727.24,-88.66C643.07,-87.14 420.31,-79.03 240.6,-36 237.76,-35.32 234.86,-34.5 231.97,-33.59"/>
<polygon fill="black" stroke="black" points="232.88,-30.21 222.29,-30.25 230.6,-36.82 232.88,-30.21"/>
</g>
<!-- 4 -->
<g id="node5" class="node">
<title>4</title>
<ellipse fill="#f0f0f0" stroke="#f0f0f0" cx="283.6" cy="-18" rx="34.39" ry="18"/>
<text text-anchor="middle" x="283.6" y="-14.3" font-family="Times,serif" font-size="14.00">1123</text>
</g>
<!-- 0&#45;&gt;4 -->
<g id="edge4" class="edge">
<title>0&#45;&gt;4</title>
<path fill="none" stroke="black" d="M727.31,-87.69C653.29,-84.23 473.4,-72.47 327.6,-36 324.77,-35.29 321.87,-34.45 318.99,-33.53"/>
<polygon fill="black" stroke="black" points="319.91,-30.14 309.31,-30.15 317.6,-36.75 319.91,-30.14"/>
</g>
<!-- 5 -->
<g id="node6" class="node">
<title>5</title>
<ellipse fill="#f0f0f0" stroke="#f0f0f0" cx="370.6" cy="-18" rx="34.39" ry="18"/>
<text text-anchor="middle" x="370.6" y="-14.3" font-family="Times,serif" font-size="14.00">1305</text>
</g>
<!-- 0&#45;&gt;5 -->
<g id="edge5" class="edge">
<title>0&#45;&gt;5</title>
<path fill="none" stroke="black" d="M727.6,-86.27C664.88,-80.71 527.08,-65.94 414.6,-36 411.78,-35.25 408.89,-34.38 406.01,-33.44"/>
<polygon fill="black" stroke="black" points="406.94,-30.05 396.35,-30.02 404.61,-36.65 406.94,-30.05"/>
</g>
<!-- 6 -->
<g id="node7" class="node">
<title>6</title>
<ellipse fill="#f0f0f0" stroke="#f0f0f0" cx="457.6" cy="-18" rx="34.39" ry="18"/>
<text text-anchor="middle" x="457.6" y="-14.3" font-family="Times,serif" font-size="14.00">2045</text>
</g>
<!-- 0&#45;&gt;6 -->
<g id="edge6" class="edge">
<title>0&#45;&gt;6</title>
<path fill="none" stroke="black" d="M728.74,-84.12C678.99,-76.32 581.84,-59.5 501.6,-36 498.96,-35.23 496.26,-34.37 493.56,-33.45"/>
<polygon fill="black" stroke="black" points="494.47,-30.06 483.88,-29.98 492.11,-36.65 494.47,-30.06"/>
</g>
<!-- 7 -->
<g id="node8" class="node">
<title>7</title>
<ellipse fill="#f0f0f0" stroke="#f0f0f0" cx="544.6" cy="-18" rx="34.39" ry="18"/>
<text text-anchor="middle" x="544.6" y="-14.3" font-family="Times,serif" font-size="14.00">2046</text>
</g>
<!-- 0&#45;&gt;7 -->
<g id="edge7" class="edge">
<title>0&#45;&gt;7</title>
<path fill="none" stroke="black" d="M732,-80.63C697.39,-70.68 638.47,-53.25 588.6,-36 585.91,-35.07 583.15,-34.08 580.37,-33.07"/>
<polygon fill="black" stroke="black" points="581.6,-29.79 571.01,-29.56 579.14,-36.34 581.6,-29.79"/>
</g>
<!-- 8 -->
<g id="node9" class="node">
<title>8</title>
<ellipse fill="#f0f0f0" stroke="#f0f0f0" cx="631.6" cy="-18" rx="34.39" ry="18"/>
<text text-anchor="middle" x="631.6" y="-14.3" font-family="Times,serif" font-size="14.00">2047</text>
</g>
<!-- 0&#45;&gt;8 -->
<g id="edge8" class="edge">
<title>0&#45;&gt;8</title>
<path fill="none" stroke="black" d="M738.36,-76.49C717.56,-65.29 686.87,-48.76 663.73,-36.3"/>
<polygon fill="black" stroke="black" points="665.1,-33.07 654.64,-31.41 661.78,-39.23 665.1,-33.07"/>
</g>
<!-- 9 -->
<g id="node10" class="node">
<title>9</title>
<ellipse fill="#f0f0f0" stroke="#f0f0f0" cx="718.6" cy="-18" rx="34.39" ry="18"/>
<text text-anchor="middle" x="718.6" y="-14.3" font-family="Times,serif" font-size="14.00">2049</text>
</g>
<!-- 0&#45;&gt;9 -->
<g id="edge9" class="edge">
<title>0&#45;&gt;9</title>
<path fill="none" stroke="black" d="M751.62,-72.76C746.44,-64.32 739.97,-53.8 734.15,-44.31"/>
<polygon fill="black" stroke="black" points="737.03,-42.32 728.82,-35.63 731.07,-45.99 737.03,-42.32"/>
</g>
<!-- 10 -->
<g id="node11" class="node">
<title>10</title>
<ellipse fill="#f0f0f0" stroke="#f0f0f0" cx="805.6" cy="-18" rx="34.39" ry="18"/>
<text text-anchor="middle" x="805.6" y="-14.3" font-family="Times,serif" font-size="14.00">2119</text>
</g>
<!-- 0&#45;&gt;10 -->
<g id="edge10" class="edge">
<title>0&#45;&gt;10</title>
<path fill="none" stroke="black" d="M771.8,-72.76C777.11,-64.32 783.72,-53.8 789.69,-44.31"/>
<polygon fill="black" stroke="black" points="792.78,-45.96 795.14,-35.63 786.86,-42.24 792.78,-45.96"/>
</g>
<!-- 11 -->
<g id="node12" class="node">
<title>11</title>
<ellipse fill="#f0f0f0" stroke="#f0f0f0" cx="892.6" cy="-18" rx="34.39" ry="18"/>
<text text-anchor="middle" x="892.6" y="-14.3" font-family="Times,serif" font-size="14.00">2822</text>
</g>
<!-- 0&#45;&gt;11 -->
<g id="edge11" class="edge">
<title>0&#45;&gt;11</title>
<path fill="none" stroke="black" d="M784.72,-76.65C805.73,-65.42 836.93,-48.75 860.38,-36.21"/>
<polygon fill="black" stroke="black" points="862.1,-39.27 869.27,-31.47 858.8,-33.09 862.1,-39.27"/>
</g>
<!-- 12 -->
<g id="node13" class="node">
<title>12</title>
<ellipse fill="#f0f0f0" stroke="#f0f0f0" cx="979.6" cy="-18" rx="34.39" ry="18"/>
<text text-anchor="middle" x="979.6" y="-14.3" font-family="Times,serif" font-size="14.00">3864</text>
</g>
<!-- 0&#45;&gt;12 -->
<g id="edge12" class="edge">
<title>0&#45;&gt;12</title>
<path fill="none" stroke="black" d="M791.37,-80.65C826.18,-70.72 885.45,-53.3 935.6,-36 938.28,-35.07 941.05,-34.09 943.82,-33.07"/>
<polygon fill="black" stroke="black" points="945.05,-36.35 953.19,-29.56 942.6,-29.79 945.05,-36.35"/>
</g>
<!-- 13 -->
<g id="node14" class="node">
<title>13</title>
<ellipse fill="#f0f0f0" stroke="#f0f0f0" cx="1066.6" cy="-18" rx="34.39" ry="18"/>
<text text-anchor="middle" x="1066.6" y="-14.3" font-family="Times,serif" font-size="14.00">4021</text>
</g>
<!-- 0&#45;&gt;13 -->
<g id="edge13" class="edge">
<title>0&#45;&gt;13</title>
<path fill="none" stroke="black" d="M794.58,-84.13C844.52,-76.35 942.05,-59.56 1022.6,-36 1025.23,-35.23 1027.93,-34.37 1030.64,-33.46"/>
<polygon fill="black" stroke="black" points="1032.09,-36.65 1040.32,-29.98 1029.73,-30.06 1032.09,-36.65"/>
</g>
<!-- 14 -->
<g id="node15" class="node">
<title>14</title>
<ellipse fill="#f0f0f0" stroke="#f0f0f0" cx="1153.6" cy="-18" rx="34.39" ry="18"/>
<text text-anchor="middle" x="1153.6" y="-14.3" font-family="Times,serif" font-size="14.00">4288</text>
</g>
<!-- 0&#45;&gt;14 -->
<g id="edge14" class="edge">
<title>0&#45;&gt;14</title>
<path fill="none" stroke="black" d="M795.69,-86.29C858.6,-80.74 996.79,-66 1109.6,-36 1112.42,-35.25 1115.3,-34.38 1118.18,-33.44"/>
<polygon fill="black" stroke="black" points="1119.59,-36.65 1127.85,-30.02 1117.25,-30.05 1119.59,-36.65"/>
</g>
<!-- 15 -->
<g id="node16" class="node">
<title>15</title>
<ellipse fill="#f0f0f0" stroke="#f0f0f0" cx="1240.6" cy="-18" rx="34.39" ry="18"/>
<text text-anchor="middle" x="1240.6" y="-14.3" font-family="Times,serif" font-size="14.00">4289</text>
</g>
<!-- 0&#45;&gt;15 -->
<g id="edge15" class="edge">
<title>0&#45;&gt;15</title>
<path fill="none" stroke="black" d="M795.96,-87.7C870.16,-84.26 1050.46,-72.53 1196.6,-36 1199.43,-35.29 1202.32,-34.45 1205.21,-33.53"/>
<polygon fill="black" stroke="black" points="1206.59,-36.75 1214.88,-30.16 1204.29,-30.14 1206.59,-36.75"/>
</g>
<!-- 16 -->
<g id="node17" class="node">
<title>16</title>
<ellipse fill="#f0f0f0" stroke="#f0f0f0" cx="1327.6" cy="-18" rx="34.39" ry="18"/>
<text text-anchor="middle" x="1327.6" y="-14.3" font-family="Times,serif" font-size="14.00">5234</text>
</g>
<!-- 0&#45;&gt;16 -->
<g id="edge16" class="edge">
<title>0&#45;&gt;16</title>
<path fill="none" stroke="black" d="M796.02,-88.67C880.35,-87.17 1103.54,-79.1 1283.6,-36 1286.43,-35.32 1289.33,-34.5 1292.22,-33.59"/>
<polygon fill="black" stroke="black" points="1293.6,-36.82 1301.91,-30.25 1291.31,-30.21 1293.6,-36.82"/>
</g>
<!-- 17 -->
<g id="node18" class="node">
<title>17</title>
<ellipse fill="#f0f0f0" stroke="#f0f0f0" cx="1414.6" cy="-18" rx="34.39" ry="18"/>
<text text-anchor="middle" x="1414.6" y="-14.3" font-family="Times,serif" font-size="14.00">5321</text>
</g>
<!-- 0&#45;&gt;17 -->
<g id="edge17" class="edge">
<title>0&#45;&gt;17</title>
<path fill="none" stroke="black" d="M796.13,-89.37C889.85,-89.65 1156.33,-85.66 1370.6,-36 1373.44,-35.34 1376.34,-34.54 1379.23,-33.64"/>
<polygon fill="black" stroke="black" points="1380.6,-36.87 1388.92,-30.31 1378.33,-30.25 1380.6,-36.87"/>
</g>
<!-- 18 -->
<g id="node19" class="node">
<title>18</title>
<ellipse fill="#f0f0f0" stroke="#f0f0f0" cx="1501.6" cy="-18" rx="34.39" ry="18"/>
<text text-anchor="middle" x="1501.6" y="-14.3" font-family="Times,serif" font-size="14.00">6854</text>
</g>
<!-- 0&#45;&gt;18 -->
<g id="edge18" class="edge">
<title>0&#45;&gt;18</title>
<path fill="none" stroke="black" d="M795.78,-87.72C917.48,-82.96 1329.2,-65.03 1457.6,-36 1460.44,-35.36 1463.35,-34.56 1466.24,-33.67"/>
<polygon fill="black" stroke="black" points="1467.6,-36.91 1475.93,-30.36 1465.34,-30.28 1467.6,-36.91"/>
</g>
</g>
</svg>
